<svg xmlns="http://www.w3.org/2000/svg" viewBox="0 0 800 600" width="800" height="600">

  <defs>
    <linearGradient id="bg" x1="0" y1="0" x2="1" y2="1"><stop offset="0" stop-color="#123F50"/><stop offset="1" stop-color="#157890"/></linearGradient>
    
  <radialGradient id="sFill" cx="0.36" cy="0.3" r="0.85"><stop offset="0" stop-color="#FFFFFF"/><stop offset="0.55" stop-color="#F4FBFA"/><stop offset="1" stop-color="#E4F1F4"/></radialGradient>
  <linearGradient id="sShade" x1="0" y1="0" x2="1" y2="0"><stop offset="0.55" stop-color="#157890" stop-opacity="0"/><stop offset="1" stop-color="#157890" stop-opacity="0.16"/></linearGradient>
  <filter id="sShadow" x="-30%" y="-30%" width="160%" height="160%"><feDropShadow dx="0" dy="18" stdDeviation="22" flood-color="#0A2E3B" flood-opacity="0.28"/></filter>
  <filter id="sBlur"><feGaussianBlur stdDeviation="10"/></filter>
    <filter id="glow"><feGaussianBlur stdDeviation="30"/></filter>
  </defs>
  <rect width="800" height="600" fill="url(#bg)"/>
  <circle cx="560" cy="220" r="210" fill="#5DB8CC" opacity="0.22" filter="url(#glow)"/>
  <circle cx="660" cy="80" r="140" fill="#FFFFFF" opacity="0.05"/>
  <circle cx="90" cy="520" r="180" fill="#FFFFFF" opacity="0.04"/>
  <g fill="#FFFFFF" opacity="0.18"><circle cx="60" cy="60" r="3"/><circle cx="86" cy="60" r="3"/><circle cx="112" cy="60" r="3"/><circle cx="138" cy="60" r="3"/><circle cx="164" cy="60" r="3"/><circle cx="190" cy="60" r="3"/><circle cx="60" cy="86" r="3"/><circle cx="86" cy="86" r="3"/><circle cx="112" cy="86" r="3"/><circle cx="138" cy="86" r="3"/><circle cx="164" cy="86" r="3"/><circle cx="190" cy="86" r="3"/><circle cx="60" cy="112" r="3"/><circle cx="86" cy="112" r="3"/><circle cx="112" cy="112" r="3"/><circle cx="138" cy="112" r="3"/><circle cx="164" cy="112" r="3"/><circle cx="190" cy="112" r="3"/><circle cx="60" cy="138" r="3"/><circle cx="86" cy="138" r="3"/><circle cx="112" cy="138" r="3"/><circle cx="138" cy="138" r="3"/><circle cx="164" cy="138" r="3"/><circle cx="190" cy="138" r="3"/><circle cx="60" cy="164" r="3"/><circle cx="86" cy="164" r="3"/><circle cx="112" cy="164" r="3"/><circle cx="138" cy="164" r="3"/><circle cx="164" cy="164" r="3"/><circle cx="190" cy="164" r="3"/></g>
  
    <g transform="translate(470 290)">
      <path d="M-230 -40C-230 150 230 150 230 -40L190 -60C190 90 -190 90 -190 -60Z" fill="#E99A9A" opacity="0.85"/>
      <rect x="-215.71663222572622" y="-51.131011283514525" width="44" height="56" rx="18" fill="url(#sFill)" stroke="#FFFFFF" stroke-width="3"/><rect x="-183.80339887498948" y="-17.221474770752685" width="44" height="56" rx="18" fill="url(#sFill)" stroke="#FFFFFF" stroke-width="3"/><rect x="-129.1653589957993" y="8.432792550201512" width="44" height="56" rx="18" fill="url(#sFill)" stroke="#FFFFFF" stroke-width="3"/><rect x="-59.47626291714495" y="22.228725072868855" width="44" height="56" rx="18" fill="url(#sFill)" stroke="#FFFFFF" stroke-width="3"/><rect x="15.47626291714488" y="22.22872507286887" width="44" height="56" rx="18" fill="url(#sFill)" stroke="#FFFFFF" stroke-width="3"/><rect x="85.16535899579928" y="8.432792550201512" width="44" height="56" rx="18" fill="url(#sFill)" stroke="#FFFFFF" stroke-width="3"/><rect x="139.80339887498945" y="-17.22147477075268" width="44" height="56" rx="18" fill="url(#sFill)" stroke="#FFFFFF" stroke-width="3"/><rect x="171.7166322257262" y="-51.131011283514475" width="44" height="56" rx="18" fill="url(#sFill)" stroke="#FFFFFF" stroke-width="3"/>
    </g>
    <path transform="translate(700 110)" d="M0 -24C4.32 -4.32 4.32 -4.32 24 0C4.32 4.32 4.32 4.32 0 24C-4.32 4.32 -4.32 4.32 -24 0C-4.32 -4.32 -4.32 -4.32 0 -24Z" fill="#D1AA5B" opacity="1"/><path transform="translate(300 120)" d="M0 -14C2.52 -2.52 2.52 -2.52 14 0C2.52 2.52 2.52 2.52 0 14C-2.52 2.52 -2.52 2.52 -14 0C-2.52 -2.52 -2.52 -2.52 0 -14Z" fill="#FFFFFF" opacity="0.8"/>
</svg>
