<svg xmlns="http://www.w3.org/2000/svg" viewBox="0 0 800 600" width="800" height="600">

  <defs>
    <linearGradient id="bg" x1="0" y1="0" x2="1" y2="1"><stop offset="0" stop-color="#08495F"/><stop offset="1" stop-color="#0A2E3B"/></linearGradient>
    
  <radialGradient id="sFill" cx="0.36" cy="0.3" r="0.85"><stop offset="0" stop-color="#FFFFFF"/><stop offset="0.55" stop-color="#F4FBFA"/><stop offset="1" stop-color="#E4F1F4"/></radialGradient>
  <linearGradient id="sShade" x1="0" y1="0" x2="1" y2="0"><stop offset="0.55" stop-color="#157890" stop-opacity="0"/><stop offset="1" stop-color="#157890" stop-opacity="0.16"/></linearGradient>
  <filter id="sShadow" x="-30%" y="-30%" width="160%" height="160%"><feDropShadow dx="0" dy="18" stdDeviation="22" flood-color="#0A2E3B" flood-opacity="0.28"/></filter>
  <filter id="sBlur"><feGaussianBlur stdDeviation="10"/></filter>
    <filter id="glow"><feGaussianBlur stdDeviation="30"/></filter>
  </defs>
  <rect width="800" height="600" fill="url(#bg)"/>
  <circle cx="560" cy="220" r="210" fill="#5DB8CC" opacity="0.22" filter="url(#glow)"/>
  <circle cx="660" cy="80" r="140" fill="#FFFFFF" opacity="0.05"/>
  <circle cx="90" cy="520" r="180" fill="#FFFFFF" opacity="0.04"/>
  <g fill="#FFFFFF" opacity="0.18"><circle cx="60" cy="60" r="3"/><circle cx="86" cy="60" r="3"/><circle cx="112" cy="60" r="3"/><circle cx="138" cy="60" r="3"/><circle cx="164" cy="60" r="3"/><circle cx="190" cy="60" r="3"/><circle cx="60" cy="86" r="3"/><circle cx="86" cy="86" r="3"/><circle cx="112" cy="86" r="3"/><circle cx="138" cy="86" r="3"/><circle cx="164" cy="86" r="3"/><circle cx="190" cy="86" r="3"/><circle cx="60" cy="112" r="3"/><circle cx="86" cy="112" r="3"/><circle cx="112" cy="112" r="3"/><circle cx="138" cy="112" r="3"/><circle cx="164" cy="112" r="3"/><circle cx="190" cy="112" r="3"/><circle cx="60" cy="138" r="3"/><circle cx="86" cy="138" r="3"/><circle cx="112" cy="138" r="3"/><circle cx="138" cy="138" r="3"/><circle cx="164" cy="138" r="3"/><circle cx="190" cy="138" r="3"/><circle cx="60" cy="164" r="3"/><circle cx="86" cy="164" r="3"/><circle cx="112" cy="164" r="3"/><circle cx="138" cy="164" r="3"/><circle cx="164" cy="164" r="3"/><circle cx="190" cy="164" r="3"/></g>
  
    <g transform="translate(330 120)">
      <g transform="scale(0.45)"><path d="M256 104C228 74 176 58 138 78C96 100 90 158 102 210C112 254 126 290 138 336C148 374 152 414 172 424C194 434 202 396 210 364C218 332 232 306 256 306C280 306 294 332 302 364C310 396 318 434 340 424C360 414 364 374 374 336C386 290 400 254 410 210C422 158 416 100 374 78C336 58 284 74 256 104Z" fill="url(#sFill)" filter="url(#sShadow)"/></g>
      <g transform="translate(200 0) scale(0.45)"><path d="M256 104C228 74 176 58 138 78C96 100 90 158 102 210C112 254 126 290 138 336C148 374 152 414 172 424C194 434 202 396 210 364C218 332 232 306 256 306C280 306 294 332 302 364C310 396 318 434 340 424C360 414 364 374 374 336C386 290 400 254 410 210C422 158 416 100 374 78C336 58 284 74 256 104Z" fill="url(#sFill)" filter="url(#sShadow)"/></g>
      <path d="M-20 150C40 110 90 170 140 130C190 90 250 160 300 120C350 90 400 130 440 120V260H-20Z" fill="#E78C8C" opacity="0.9"/>
      <path d="M-20 150C40 110 90 170 140 130C190 90 250 160 300 120C350 90 400 130 440 120" fill="none" stroke="#F6C1C1" stroke-width="8"/>
    </g>
    <path d="M660 110c-14-22-52-16-52 12 0 26 52 52 52 52s52-26 52-52c0-28-38-34-52-12z" fill="#D1AA5B"/>
    <path transform="translate(340 110)" d="M0 -18C3.2399999999999998 -3.2399999999999998 3.2399999999999998 -3.2399999999999998 18 0C3.2399999999999998 3.2399999999999998 3.2399999999999998 3.2399999999999998 0 18C-3.2399999999999998 3.2399999999999998 -3.2399999999999998 3.2399999999999998 -18 0C-3.2399999999999998 -3.2399999999999998 -3.2399999999999998 -3.2399999999999998 0 -18Z" fill="#FFFFFF" opacity="0.8"/>
</svg>
